<svg id="Layer_1" data-name="Layer 1" xmlns="http://www.w3.org/2000/svg" viewBox="0 0 377.31 124.76"><defs><style>.cls-1{fill:#7fc31c;}.cls-2{fill:#7ec31b;}.cls-3{fill:#7fc41b;}.cls-4{font-size:52.88px;font-family:MyriadPro-Regular, Myriad Pro;}.cls-4,.cls-5{fill:#fff;}.cls-5{font-size:106.03px;font-family:ArialRoundedMTBold, Arial Rounded MT Bold;}</style></defs><title>iso 5</title><path class="cls-1" d="M75.35,61.47q0,14.11,0,28.23-10.71,9.7-21.41,19.39c-1.31,1.19-2.23,2.81-4.26.47C35.59,93.38,18.54,80.74,0,68.16c16.58-1.79,32.06-5.79,46,6.4,7.29,6.38,7.86,5.68,15.11-.71C65.8,69.69,70.59,65.59,75.35,61.47Z"/><path class="cls-2" d="M154,24.34a83.75,83.75,0,0,0-17.92-3.87c17.59-10.37,36.78-16,56.82-19A119.92,119.92,0,0,1,225.37.8C198.9,3.4,174.52,8,154,24.34Z"/><path class="cls-3" d="M96.67,70.24q0-12.9.07-25.79l11.68-7.74c-2.41,7.72-2.64,15.34,1.11,22.75Q103.11,64.86,96.67,70.24Z"/><text class="cls-4" transform="translate(260.56 58.66)">9001<tspan x="0" y="43.76">2015</tspan></text><text class="cls-5" transform="translate(69.58 101.36)">ISO</text></svg>