<?xml version="1.0" encoding="UTF-8"?> <!-- Generator: Adobe Illustrator 21.0.0, SVG Export Plug-In . SVG Version: 6.00 Build 0) --> <svg xmlns="http://www.w3.org/2000/svg" xmlns:xlink="http://www.w3.org/1999/xlink" version="1.1" id="Layer_1" x="0px" y="0px" viewBox="0 0 64 64" style="enable-background:new 0 0 64 64;" xml:space="preserve"> <style type="text/css"> .st0{fill:#039BE5;stroke:#0277BD;stroke-linecap:round;stroke-linejoin:round;stroke-miterlimit:10;} .st1{fill:#81D4FA;stroke:#0277BD;stroke-linecap:round;stroke-linejoin:round;stroke-miterlimit:10;} .st2{fill:#EC407A;stroke:#0277BD;stroke-linecap:round;stroke-linejoin:round;stroke-miterlimit:10;} .st3{fill:#FFA726;stroke:#0277BD;stroke-linecap:round;stroke-linejoin:round;stroke-miterlimit:10;} .st4{fill:#80CBC4;stroke:#0277BD;stroke-linecap:round;stroke-linejoin:round;stroke-miterlimit:10;} .st5{fill:none;stroke:#F48FB1;stroke-linecap:round;stroke-linejoin:round;stroke-miterlimit:10;} .st6{fill:none;stroke:#FFCC80;stroke-linecap:round;stroke-linejoin:round;stroke-miterlimit:10;} .st7{fill:none;stroke:#E0F2F1;stroke-linecap:round;stroke-linejoin:round;stroke-miterlimit:10;} .st8{fill:none;stroke:#26A69A;stroke-linecap:round;stroke-linejoin:round;stroke-miterlimit:10;} .st9{fill:none;stroke:#F57C00;stroke-linecap:round;stroke-linejoin:round;stroke-miterlimit:10;} .st10{fill:none;stroke:#D81B60;stroke-linecap:round;stroke-linejoin:round;stroke-miterlimit:10;} .st11{fill:#EEEEEE;stroke:#0277BD;stroke-linecap:round;stroke-linejoin:round;stroke-miterlimit:10;} .st12{fill:none;stroke:#BDBDBD;stroke-linecap:round;stroke-linejoin:round;stroke-miterlimit:10;} .st13{fill:none;stroke:#E1F5FE;stroke-linecap:round;stroke-linejoin:round;stroke-miterlimit:10;} .st14{fill:none;stroke:#FFFFFF;stroke-linecap:round;stroke-linejoin:round;stroke-miterlimit:10;} .st15{fill:none;stroke:#29B6F6;stroke-linecap:round;stroke-linejoin:round;stroke-miterlimit:10;} .st16{fill:none;stroke:#4FC3F7;stroke-linecap:round;stroke-linejoin:round;stroke-miterlimit:10;} .st17{fill:none;stroke:#0277BD;stroke-linecap:round;stroke-linejoin:round;stroke-miterlimit:10;} </style> <g id="Worldwide_Shipping"> <g> <circle class="st1" cx="32" cy="32" r="25"></circle> <path class="st17" d="M3,32C3,16,16,3,32,3"></path> <path class="st17" d="M61,32c0,16-13,29-29,29"></path> <line class="st17" x1="7" y1="32" x2="57" y2="32"></line> <path class="st13" d="M15.7,15.7c9-9,23.6-9,32.5,0"></path> <path class="st15" d="M48.3,48.3c-9,9-23.6,9-32.5,0"></path> <ellipse class="st17" cx="32" cy="32" rx="12.5" ry="25"></ellipse> <path class="st17" d="M32,44.5c-7.4,0-14.1,1.6-18.6,4.2C17.9,53.8,24.6,57,32,57s14.1-3.2,18.6-8.3C46.1,46.1,39.4,44.5,32,44.5z "></path> <path class="st17" d="M32,19.5c7.4,0,14.1-1.6,18.6-4.2C46.1,10.2,39.4,7,32,7s-14.1,3.2-18.6,8.3C17.9,17.9,24.6,19.5,32,19.5z"></path> <line class="st1" x1="32" y1="7" x2="32" y2="57"></line> <ellipse class="st11" cx="10.5" cy="58.5" rx="7.5" ry="2.5"></ellipse> <ellipse class="st11" cx="53.5" cy="25.3" rx="7.5" ry="2.5"></ellipse> <g> <path class="st2" d="M5.3,38.3L5.3,38.3c-2.5,2.4-3,6.2-1.2,9.2l6.5,11l6.5-11c1.8-3,1.2-6.8-1.2-9.2l0,0 C12.8,35.5,8.2,35.5,5.3,38.3z"></path> <circle class="st11" cx="10.5" cy="43.7" r="3"></circle> </g> <g> <path class="st3" d="M48.3,5.1L48.3,5.1c-2.5,2.4-3,6.2-1.2,9.2l6.5,11l6.5-11c1.8-3,1.2-6.8-1.2-9.2l0,0 C55.8,2.3,51.2,2.3,48.3,5.1z"></path> <circle class="st11" cx="53.5" cy="10.5" r="3"></circle> </g> </g> </g> </svg> 