<?xml version="1.0" encoding="UTF-8"?> <!-- Generator: Adobe Illustrator 22.0.1, SVG Export Plug-In . SVG Version: 6.00 Build 0) --> <svg xmlns="http://www.w3.org/2000/svg" xmlns:xlink="http://www.w3.org/1999/xlink" version="1.1" id="Layer_1" x="0px" y="0px" viewBox="0 0 256 256" style="enable-background:new 0 0 256 256;" xml:space="preserve"> <style type="text/css"> .st0{fill:#3A312A;} .st1{fill:#D6DF58;} .st2{fill:#87796F;} .st3{fill:#B9C239;} .st4{fill:#EF6D7A;} .st5{fill:#FCE8CB;} .st6{fill:#D5DE58;} .st7{fill:#D34E5C;} .st8{fill:#695B51;} .st9{fill:#8AC6DD;} .st10{fill:#D7E057;} .st11{fill:#B8C136;} .st12{fill:#F16C7A;} .st13{fill:#8AC2D9;} .st14{fill:#F7E3C7;} .st15{fill:#8AC3DA;} .st16{fill:#6DA3BC;} .st17{fill:#6A5C52;} .st18{fill:#D5DC57;} .st19{fill:#F6E2C6;} .st20{fill:#DBC7AA;} .st21{fill:#CE4E61;} .st22{fill:#FAE6CA;} .st23{fill:#8AC5DC;} .st24{fill:#DDC9AC;} .st25{fill:#DECAAD;} .st26{fill:#6CA6BE;} .st27{fill:#F8E4C8;} .st28{fill:#89C4DB;} .st29{fill:#ED6E7A;} .st30{fill:#D24E5C;} .st31{fill:#6DA4BD;} .st32{fill:#EB6E7A;} .st33{fill:#68A7BB;} .st34{fill:#B9BC37;} .st35{fill:#CC4E61;} .st36{fill:#6CA8BF;} .st37{fill-rule:evenodd;clip-rule:evenodd;fill:#D5DE58;} .st38{fill:#EA6D7A;} .st39{fill:#F4E0C4;} .st40{fill-rule:evenodd;clip-rule:evenodd;fill:#D6DF58;} .st41{fill-rule:evenodd;clip-rule:evenodd;fill:#F16C7A;} .st42{fill:#F3DEC3;} .st43{fill-rule:evenodd;clip-rule:evenodd;fill:#FAE6CA;} .st44{fill:#F59689;} .st45{fill-rule:evenodd;clip-rule:evenodd;fill:#F8E4C8;} .st46{fill-rule:evenodd;clip-rule:evenodd;fill:#FCE8CB;} .st47{fill:#F5978A;} .st48{fill:#D4DB56;} .st49{fill-rule:evenodd;clip-rule:evenodd;fill:#D4DA55;} .st50{fill-rule:evenodd;clip-rule:evenodd;fill:#EB6E7A;} .st51{fill:#68A6B9;} .st52{fill-rule:evenodd;clip-rule:evenodd;fill:#D5DC57;} .st53{fill:#8AC1D8;} .st54{fill:#F5E1C5;} .st55{fill:#D4D752;} .st56{fill:#D3D751;} .st57{fill:#D4D853;} .st58{fill:#E96C7A;} .st59{fill:#D4DA55;} .st60{fill:#8BC0D7;} .st61{fill:#87796F;stroke:#3A312A;stroke-width:3;stroke-linecap:round;stroke-linejoin:round;stroke-miterlimit:10;} </style> <g> <g> <g> <path class="st2" d="M234.846,204.38H21.155c-2.703,0-4.895,2.192-4.895,4.895c0,2.703,2.192,4.895,4.895,4.895h213.691 c2.703,0,4.895-2.191,4.895-4.895C239.74,206.572,237.549,204.38,234.846,204.38z"></path> </g> </g> <g> <g> <path class="st0" d="M234.846,202.88H21.154c-3.526,0-6.394,2.869-6.394,6.394c0,3.526,2.869,6.395,6.394,6.395h106.328 c0.829,0,1.5-0.671,1.5-1.5s-0.671-1.5-1.5-1.5H21.154c-1.872,0-3.394-1.523-3.394-3.395c0-1.872,1.523-3.394,3.394-3.394 h213.691c1.872,0,3.394,1.523,3.394,3.394c0,1.872-1.523,3.395-3.394,3.395h-93.661c-0.829,0-1.5,0.671-1.5,1.5 s0.671,1.5,1.5,1.5h93.661c3.526,0,6.394-2.869,6.394-6.395C241.24,205.749,238.372,202.88,234.846,202.88z"></path> </g> </g> <g> <g> <path class="st10" d="M47.866,25.613c-0.974,11.564-13.025,13.39-13.025,13.39c10.347,0.487,12.925,14.059,12.925,14.059 c0.221-9.677,13.321-14.202,13.321-14.202C51.274,38.272,47.866,25.613,47.866,25.613z"></path> </g> </g> <g> <g> <path class="st0" d="M61.177,37.362c-8.604-0.514-11.832-12.024-11.863-12.14c-0.191-0.703-0.864-1.163-1.583-1.102 c-0.725,0.066-1.298,0.642-1.359,1.367c-0.86,10.215-11.314,11.964-11.755,12.033c-0.763,0.115-1.313,0.79-1.273,1.561 c0.04,0.77,0.657,1.384,1.428,1.421c9.028,0.425,11.499,12.718,11.523,12.842c0.137,0.711,0.759,1.217,1.472,1.217 c0.042,0,0.084-0.001,0.126-0.005c0.764-0.064,1.357-0.693,1.375-1.46c0.195-8.509,12.192-12.777,12.313-12.819 c0.675-0.235,1.092-0.915,0.994-1.623C62.475,37.946,61.891,37.405,61.177,37.362z M47.611,47.708 c-1.356-3.13-3.709-6.907-7.587-8.876c2.931-1.405,6.409-3.913,8.202-8.273c1.551,3.071,4.199,6.88,8.334,8.722 C53.553,40.921,49.637,43.687,47.611,47.708z"></path> </g> </g> <g> <g> <path class="st10" d="M26.167,42.594c-0.689,8.179-9.212,9.471-9.212,9.471c7.318,0.344,9.142,9.944,9.142,9.944 c0.156-6.844,9.422-10.045,9.422-10.045C28.578,51.548,26.167,42.594,26.167,42.594z"></path> </g> </g> <g> <g> <path class="st0" d="M35.608,50.465c-5.766-0.345-7.972-8.185-7.993-8.264c-0.19-0.702-0.852-1.169-1.582-1.102 c-0.726,0.065-1.299,0.642-1.36,1.368c-0.579,6.871-7.646,8.067-7.942,8.114c-0.763,0.115-1.313,0.79-1.273,1.561 c0.04,0.77,0.657,1.384,1.428,1.421c6.035,0.284,7.723,8.644,7.739,8.726c0.135,0.712,0.759,1.22,1.473,1.22 c0.041,0,0.083-0.001,0.125-0.005c0.765-0.063,1.358-0.694,1.376-1.461c0.13-5.709,8.332-8.634,8.412-8.662 c0.677-0.234,1.094-0.913,0.996-1.622C36.907,51.05,36.323,50.508,35.608,50.465z M26.024,57.261 c-0.924-1.886-2.34-3.947-4.447-5.28c1.855-1.041,3.697-2.63,4.871-4.916c1.057,1.874,2.654,3.954,4.941,5.223 C29.539,53.389,27.4,55.028,26.024,57.261z"></path> </g> </g> <g> <g> <path class="st10" d="M26.167,15.936c-0.689,8.179-9.212,9.471-9.212,9.471c7.318,0.345,9.142,9.944,9.142,9.944 c0.156-6.845,9.422-10.045,9.422-10.045C28.578,24.89,26.167,15.936,26.167,15.936z"></path> </g> </g> <g> <g> <path class="st0" d="M35.608,23.808c-5.766-0.345-7.972-8.185-7.994-8.265c-0.19-0.702-0.852-1.169-1.582-1.102 c-0.726,0.065-1.299,0.642-1.36,1.368c-0.579,6.871-7.646,8.067-7.942,8.114c-0.763,0.115-1.313,0.79-1.273,1.561 c0.04,0.77,0.657,1.384,1.427,1.421c6.035,0.284,7.724,8.644,7.739,8.726c0.135,0.712,0.759,1.22,1.472,1.22 c0.042,0,0.083-0.002,0.125-0.005c0.765-0.063,1.358-0.694,1.376-1.461c0.13-5.709,8.331-8.634,8.412-8.662 c0.676-0.234,1.094-0.913,0.996-1.622C36.907,24.393,36.323,23.851,35.608,23.808z M26.024,30.604 c-0.924-1.886-2.34-3.947-4.447-5.28c1.855-1.042,3.697-2.63,4.871-4.917c1.057,1.874,2.654,3.954,4.941,5.224 C29.539,26.731,27.4,28.371,26.024,30.604z"></path> </g> </g> <g> <g> <path class="st9" d="M163.034,81h-30.162h-13.743H55.645c-6.461,0-12.621,5.243-13.763,11.704L26.541,179.5H157.32l15.34-86.796 C173.802,86.243,169.496,81,163.034,81z"></path> </g> </g> <g> <g> <path class="st0" d="M171.791,83.397c-2.107-2.513-5.218-3.897-8.757-3.897h-30.163c-0.829,0-1.5,0.671-1.5,1.5 s0.671,1.5,1.5,1.5h30.163c2.637,0,4.931,1.003,6.458,2.825c1.57,1.873,2.171,4.4,1.69,7.118L156.062,178H28.33l15.029-85.035 C44.378,87.195,49.89,82.5,55.645,82.5h63.484c0.829,0,1.5-0.671,1.5-1.5s-0.671-1.5-1.5-1.5H55.645 c-7.142,0-13.979,5.806-15.24,12.943l-15.34,86.796c-0.077,0.437,0.043,0.885,0.328,1.225c0.285,0.34,0.706,0.536,1.149,0.536 H157.32c0.728,0,1.351-0.522,1.477-1.239l15.34-86.796C174.775,89.359,173.941,85.96,171.791,83.397z"></path> </g> </g> <g> <g> <path class="st10" d="M231.003,118.843c-9.216-12.158-24.055-19.753-42.004-19.753h-17.467l-14.212,80.414H26.541l-4.397,24.876 H232.69l2.885-16.322l4.713-26.668c0.065-0.368,0.129-0.727,0.184-1.096C243.03,144.274,239.272,129.726,231.003,118.843z"></path> </g> </g> <g> <g> <path class="st0" d="M232.198,117.937c-9.801-12.931-25.547-20.347-43.199-20.347h-17.467c-0.727,0-1.35,0.522-1.477,1.239 l-13.993,79.175H26.541c-0.728,0-1.351,0.523-1.477,1.239l-4.397,24.876c-0.077,0.437,0.043,0.885,0.328,1.225 c0.285,0.34,0.706,0.536,1.149,0.536H232.69c0.728,0,1.351-0.523,1.477-1.239l7.598-42.988c0.067-0.381,0.133-0.753,0.189-1.122 C244.485,144.674,241.02,129.547,232.198,117.937z M238.989,160.071c-0.054,0.356-0.115,0.702-0.178,1.058c0,0,0,0.001,0,0.001 l-7.379,41.75H23.933l3.866-21.876H157.32c0.728,0,1.351-0.522,1.477-1.239l13.993-79.175h16.208 c16.951,0,31.444,6.804,40.81,19.161C238.131,130.703,241.393,145.018,238.989,160.071z"></path> </g> </g> <g> <g> <ellipse transform="matrix(0.7376 -0.6753 0.6753 0.7376 -124.6148 107.3608)" class="st2" cx="75.818" cy="214.004" rx="28.464" ry="23.858"></ellipse> </g> </g> <g> <g> <path class="st0" d="M98.533,194.472c-4.342-5.176-10.773-8.027-18.109-8.027c-15.063,0-29.482,12.246-32.142,27.298 c-1.322,7.481,0.39,14.51,4.821,19.794c4.342,5.176,10.773,8.027,18.109,8.027c15.063,0,29.482-12.246,32.143-27.298 C104.677,206.785,102.964,199.755,98.533,194.472z M100.401,213.743c-2.419,13.686-15.513,24.821-29.189,24.821 c-6.434,0-12.049-2.47-15.81-6.955c-3.852-4.592-5.331-10.752-4.166-17.344c2.418-13.687,15.512-24.821,29.188-24.821 c6.434,0,12.049,2.47,15.811,6.955C100.086,200.991,101.566,207.151,100.401,213.743z"></path> </g> </g> <g> <g> <ellipse transform="matrix(0.7376 -0.6753 0.6753 0.7376 -124.6109 107.3535)" class="st5" cx="75.818" cy="214.004" rx="12.606" ry="10.566"></ellipse> </g> </g> <g> <g> <path class="st0" d="M86.518,204.816c-2.084-2.485-5.16-3.854-8.66-3.854c-7.058,0-13.813,5.733-15.058,12.78 c-0.629,3.56,0.194,6.917,2.318,9.449c2.084,2.485,5.16,3.854,8.661,3.854c7.058,0,13.813-5.733,15.058-12.78 C89.466,210.705,88.643,207.349,86.518,204.816z M85.882,213.743c-1.004,5.681-6.434,10.302-12.104,10.302 c-2.598,0-4.857-0.988-6.362-2.781c-1.544-1.841-2.135-4.327-1.663-6.999c1.004-5.681,6.434-10.303,12.104-10.303 c2.598,0,4.857,0.988,6.362,2.781C85.764,208.585,86.354,211.071,85.882,213.743z"></path> </g> </g> <g> <g> <ellipse transform="matrix(0.7376 -0.6753 0.6753 0.7376 -96.5927 179.4634)" class="st2" cx="182.594" cy="214.004" rx="28.464" ry="23.858"></ellipse> </g> </g> <g> <g> <path class="st0" d="M205.31,194.472c-4.342-5.176-10.773-8.027-18.109-8.027c-15.063,0-29.482,12.246-32.142,27.298 c-1.322,7.481,0.39,14.51,4.821,19.794c4.342,5.176,10.773,8.027,18.109,8.027c15.063,0,29.482-12.246,32.142-27.298 C211.453,206.785,209.741,199.755,205.31,194.472z M207.177,213.743c-2.419,13.686-15.512,24.821-29.188,24.821 c-6.434,0-12.049-2.47-15.811-6.955c-3.852-4.592-5.331-10.752-4.166-17.344c2.419-13.687,15.512-24.821,29.188-24.821 c6.434,0,12.049,2.47,15.81,6.955C206.862,200.992,208.342,207.151,207.177,213.743z"></path> </g> </g> <g> <g> <ellipse transform="matrix(0.7376 -0.6753 0.6753 0.7376 -96.5924 179.4607)" class="st5" cx="182.594" cy="214.004" rx="12.606" ry="10.566"></ellipse> </g> </g> <g> <g> <path class="st0" d="M193.294,204.816c-2.084-2.485-5.16-3.854-8.66-3.854c-7.058,0-13.813,5.733-15.058,12.78 c-0.629,3.56,0.194,6.917,2.318,9.449c2.085,2.485,5.16,3.854,8.661,3.854c7.058,0,13.813-5.733,15.058-12.78 C196.242,210.705,195.419,207.349,193.294,204.816z M192.659,213.743c-1.004,5.681-6.434,10.302-12.104,10.302 c-2.598,0-4.857-0.988-6.362-2.781c-1.544-1.841-2.135-4.327-1.663-6.999c1.004-5.681,6.434-10.303,12.104-10.303 c2.598,0,4.857,0.988,6.362,2.781C192.541,208.585,193.131,211.071,192.659,213.743z"></path> </g> </g> <g> <g> <path class="st9" d="M231.002,118.845H190.41c-2.909,0-5.63,2.031-6.072,4.534l-5.723,32.383c-0.442,2.503,1.56,4.534,4.47,4.534 h57.388C243.03,144.275,239.272,129.727,231.002,118.845z"></path> </g> </g> <g> <g> <path class="st0" d="M232.197,117.937c-0.284-0.373-0.726-0.592-1.194-0.592H190.41c-3.662,0-6.978,2.536-7.55,5.773 l-5.723,32.383c-0.273,1.542,0.119,3.035,1.101,4.206c1.114,1.328,2.88,2.089,4.846,2.089h57.388 c0.737,0,1.365-0.536,1.481-1.264C244.485,144.675,241.02,129.548,232.197,117.937z M239.18,158.796h-56.096 c-1.077,0-2.005-0.371-2.547-1.017c-0.409-0.487-0.563-1.094-0.446-1.756l5.723-32.383c0.316-1.787,2.42-3.295,4.596-3.295 h39.841C238.018,130.908,241.168,144.488,239.18,158.796z"></path> </g> </g> <g> <g> <path class="st0" d="M114.735,104.394H56.06c-0.829,0-1.5,0.671-1.5,1.5c0,0.829,0.671,1.5,1.5,1.5h58.676 c0.829,0,1.5-0.671,1.5-1.5C116.235,105.065,115.564,104.394,114.735,104.394z"></path> </g> </g> <g> <g> <path class="st0" d="M90.429,120.143H25.347c-0.829,0-1.5,0.671-1.5,1.5s0.671,1.5,1.5,1.5h65.082c0.829,0,1.5-0.671,1.5-1.5 S91.258,120.143,90.429,120.143z"></path> </g> </g> <g> <g> <path class="st0" d="M104.124,135.894H45.448c-0.829,0-1.5,0.671-1.5,1.5c0,0.829,0.671,1.5,1.5,1.5h58.676 c0.829,0,1.5-0.671,1.5-1.5C105.624,136.565,104.952,135.894,104.124,135.894z"></path> </g> </g> <g> <g> <path class="st0" d="M79.817,151.643H14.735c-0.829,0-1.5,0.671-1.5,1.5s0.671,1.5,1.5,1.5h65.083c0.829,0,1.5-0.671,1.5-1.5 S80.646,151.643,79.817,151.643z"></path> </g> </g> <g> <g> <path class="st3" d="M189,100.59h-16.21l-0.03,0.19c13.79,1.07,25.67,6.84,34.09,16.56h21 C218.48,106.52,204.81,100.59,189,100.59z"></path> </g> </g> <g> <g> <polygon class="st3" points="217.69,161.8 210.43,202.88 231.43,202.88 238.69,161.8 "></polygon> </g> </g> <g> <g> <path class="st26" d="M230.25,120.34h-21c7.77,10.57,10.92,24.15,8.93,38.46h21C241.17,144.49,238.02,130.91,230.25,120.34z"></path> </g> </g> <g> <g> <path class="st17" d="M234.85,205.88h-22c1.87,0,3.39,1.52,3.39,3.39c0,1.88-1.52,3.4-3.39,3.4h22c1.87,0,3.39-1.52,3.39-3.4 C238.24,207.4,236.72,205.88,234.85,205.88z"></path> </g> </g> </g> </svg> 