<?xml version="1.0" encoding="UTF-8"?> <!-- Generator: Adobe Illustrator 25.2.3, SVG Export Plug-In . SVG Version: 6.00 Build 0) --> <svg xmlns="http://www.w3.org/2000/svg" xmlns:xlink="http://www.w3.org/1999/xlink" version="1.1" id="Layer_1" x="0px" y="0px" viewBox="0 0 573.9 56.2" style="enable-background:new 0 0 573.9 56.2;" xml:space="preserve"> <style type="text/css"> .st0{fill:#FDD240;} .st1{fill:#D8735A;} .st2{fill:#FFFFFF;} .st3{font-family:'ArialMT';} .st4{font-size:28.102px;} .st5{font-size:22.3212px;} .st6{fill:#4F74B3;} .st7{fill:#F2B211;} .st8{fill:#FACE32;} .st9{fill:#FF6600;} </style> <path class="st0" d="M120.8,2.9c1.2,0.2,2.3,0.4,3.5,0.7c10,2.5,16.4,8.8,19,18.7c3.6,13.8-5.8,28.2-19.8,30.7 c-13.7,2.6-26.9-6.3-29.6-20s6.3-26.9,20-29.6c1-0.1,1.9-0.3,2.9-0.5H120.8z M118.8,15.6c-0.8,0-1.7,0-2.5,0c-0.5,0-0.6-0.2-0.6-0.7 c0-1.1,0-2.2,0-3.3c0-0.8-0.2-1-1-0.8c-2.3,0.6-4.4,1.5-6.3,2.9c-4.2,3-7,7.6-7.4,12.8c-0.5,4.9,1,9.7,4.2,13.4 c2.5,2.9,5.9,5,9.7,5.8c0.6,0.2,0.8-0.1,0.7-0.6c0-1.1,0-2.3,0-3.4c0-0.5,0.1-0.7,0.7-0.7c1.6,0,3.3,0,4.9,0c0.5,0,0.8,0.2,0.7,0.8 c-0.1,1.1,0,2.3,0,3.4c0,0.6,0.2,0.7,0.8,0.6c1.2-0.3,2.4-0.7,3.6-1.2c9-4.2,12.9-14.8,8.7-23.8c-2.3-5-6.8-8.7-12.2-9.9 c-0.7-0.1-0.9,0.1-0.9,0.7c0,1.1,0,2.1,0,3.1c0,0.8-0.3,1-1,0.9S119.5,15.6,118.8,15.6L118.8,15.6z"></path> <path class="st1" d="M118.7,15.6c0.7,0,1.5,0,2.2,0s1-0.1,1-0.9c-0.1-1.1,0-2.1,0-3.2c0-0.7,0.2-0.9,0.9-0.7 c9.6,2.2,15.7,11.8,13.4,21.4c-1.2,5.4-4.9,9.9-9.9,12.2c-1.2,0.5-2.4,0.9-3.6,1.2c-0.6,0.1-0.8,0-0.8-0.6c0-1.1,0-2.3,0-3.4 c0-0.6-0.2-0.8-0.7-0.8c-1.6,0-3.3,0-4.9,0c-0.5,0-0.7,0.2-0.7,0.7c0,1.1,0,2.3,0,3.4c0,0.5-0.1,0.8-0.7,0.6 c-3.8-0.8-7.2-2.9-9.7-5.8c-3.2-3.7-4.8-8.5-4.2-13.4c0.4-5.2,3.1-9.8,7.4-12.8c1.9-1.3,4-2.3,6.3-2.9c0.8-0.2,1,0,1,0.8 c0,1.1,0,2.2,0,3.3c0,0.5,0.2,0.7,0.6,0.7C117,15.5,117.8,15.6,118.7,15.6z M118.7,18.7H108c-0.6,0-0.9,0-0.7,0.8 c0.6,2.3,1.2,4.7,1.8,7.1c0,0.4,0.4,0.7,0.8,0.7c0,0,0,0,0.1,0c5.8,0,11.6,0,17.4,0c0.4,0.1,0.9-0.2,1-0.6c0,0,0-0.1,0-0.1 c0.5-2.3,1.1-4.6,1.7-6.9c0.2-0.7,0-0.9-0.7-0.9C125.8,18.7,122.3,18.7,118.7,18.7L118.7,18.7z M118.7,37.6c3.6,0,7.2,0,10.8,0 c0.6,0,0.8-0.1,0.6-0.8c-0.6-2.3-1.2-4.6-1.7-6.9c-0.1-0.6-0.4-0.7-1-0.7c-5.8,0-11.6,0-17.3,0c-0.4-0.1-0.9,0.2-0.9,0.7 c0,0,0,0,0,0.1c-0.6,2.3-1.1,4.5-1.7,6.8c-0.2,0.8,0.1,0.8,0.7,0.8C111.7,37.6,115.2,37.6,118.7,37.6L118.7,37.6z"></path> <path class="st0" d="M118.8,18.7c3.6,0,7.1,0,10.7,0c0.7,0,0.9,0.2,0.7,0.9c-0.6,2.3-1.2,4.6-1.7,6.9c0,0.5-0.4,0.8-0.9,0.7 c0,0-0.1,0-0.1,0c-5.8,0-11.6,0-17.4,0c-0.4,0.1-0.8-0.2-0.9-0.6c0,0,0,0,0-0.1c-0.6-2.4-1.1-4.7-1.8-7.1c-0.2-0.7,0.1-0.8,0.7-0.8 L118.8,18.7z"></path> <path class="st0" d="M118.7,37.6c-3.5,0-7,0-10.6,0c-0.7,0-0.9-0.1-0.7-0.8c0.6-2.3,1.2-4.5,1.7-6.8c0-0.5,0.4-0.8,0.9-0.7 c0,0,0,0,0.1,0c5.8,0,11.6,0,17.3,0c0.5,0,0.8,0.1,1,0.7c0.5,2.3,1.1,4.6,1.7,6.9c0.2,0.7,0,0.8-0.6,0.8 C125.8,37.6,122.3,37.6,118.7,37.6z"></path> <text transform="matrix(1 0 0 1 13.6531 26.555)" class="st2 st3 st4" style="text-decoration: underline;">2011</text> <text transform="matrix(1.0296 0 0 1 13.5906 52.1689)" class="st2 st3 st5">Since</text> <polygon class="st6" points="161.5,2.9 161.5,24.9 167.7,31.7 181.7,17.3 167.5,2.9 "></polygon> <polygon class="st6" points="225.5,2.9 225.5,24.9 219.3,31.7 205.3,17.3 219.5,2.9 "></polygon> <path class="st7" d="M209.2,41.4l10-9.7l-14-14.4l-4.8,5.4l-2.9-2.5c-0.8-1.1-2.4-1.2-3.4-0.4c-0.2,0.1-0.3,0.3-0.5,0.5 c-2.1,2.3-5,3.6-5.2,4s-6,7.1-6.2,7.4s-1.9,2.3,0,3.6s0.7,1.9,5.9,2.8s6.7,0.2,9.8,1.7s3.1,2.3,5.7,2.4 C205.6,42.3,207.4,42,209.2,41.4z"></path> <path class="st8" d="M193.7,20.3c0,0-3.5-2.2-6.6,2.6c0.1-0.1-5.3-5.6-5.3-5.6l-14,14.4l22.8,20.8c0,0,2.2,2.9,6,0 c3.8-2.9,12.7-11.2,12.7-11.2s-3.4,0.3-4.4-0.1c-3.6-1.6-11.2-11.3-11.2-11.3l-4,3.3c0,0-5.2,0.4-6.3-1.7L193.7,20.3z"></path> <g id="CEO_Letter_Page"> <g id="Daniel_Zhang"> <g id="Group-Copy-5"> <path id="Fill-1" class="st9" d="M344.1,18.4l-3.5-8l-3.7,8H344.1z M332.8,27.1h-7.4l11.4-22h8.2l10.9,22h-8.2l-1.7-4h-11.4 L332.8,27.1L332.8,27.1z"></path> <path id="Fill-2" class="st9" d="M357.6,5.1h7.1v22h-7.1V5.1z"></path> <path id="Fill-3" class="st9" d="M368.3,11.8h7.1v15.4h-7.1V11.8z M368.3,5.1h7.1v4.5h-7.1V5.1z"></path> <path id="Fill-4" class="st9" d="M393.5,19.5c0.1-1.1-0.3-2.3-1-3.2c-0.6-0.8-1.6-1.2-2.6-1.2c-1-0.1-2,0.4-2.7,1.1 c-0.7,0.9-1,2.1-0.9,3.3c-0.1,1.1,0.3,2.2,0.9,3.2c1.4,1.5,3.7,1.5,5.1,0.2c0.1,0,0.1-0.1,0.2-0.2 C393.3,21.8,393.6,20.7,393.5,19.5 M379.3,5.1h7.1V14c0.8-0.9,1.8-1.5,2.8-2c1.1-0.4,2.3-0.7,3.4-0.7c2.2-0.1,4.3,0.8,5.8,2.3 c1.5,1.7,2.3,3.9,2.2,6.1c0.1,2.1-0.7,4.1-2.2,5.6c-1.6,1.4-3.6,2.2-5.8,2.1c-1.2,0-2.5-0.2-3.6-0.7c-1.1-0.5-2-1.2-2.8-2.1 c0,0.5,0,1-0.1,1.4c0,0.4-0.1,0.7-0.2,1.1h-7.1c0.1-0.4,0.2-0.7,0.2-1.1c0-0.4,0.1-0.9,0.1-1.5L379.3,5.1"></path> <path id="Fill-5" class="st9" d="M416.8,20.3c-1.6-0.1-3.2,0.1-4.7,0.5c-0.7,0.2-1.2,0.8-1.2,1.6c0,0.5,0.2,0.9,0.6,1.2 c0.5,0.3,1.1,0.5,1.7,0.4c1,0.1,1.9-0.2,2.7-0.8c0.7-0.7,1-1.6,0.9-2.5L416.8,20.3L416.8,20.3z M416.9,24.7 c-0.7,0.9-1.6,1.6-2.6,2c-1.3,0.5-2.6,0.7-3.9,0.6c-1.7,0.1-3.5-0.3-5-1.2c-1.1-0.7-1.8-2-1.8-3.3c0-1.9,1.2-3.6,3-4.2 c2-0.9,5.4-1.3,10.2-1.4c0-0.1,0-0.1,0-0.2c0-0.1,0-0.1,0-0.2c0-0.7-0.2-1.3-0.7-1.8c-0.6-0.4-1.4-0.6-2.1-0.6 c-0.7,0-1.4,0.1-2,0.4c-0.5,0.3-0.8,0.8-0.8,1.3h-6.5c0-1.6,0.9-3.1,2.4-3.8c1.6-0.8,4-1.2,7.2-1.2s5.4,0.5,7,1.4 c1.5,1,2.4,2.6,2.3,4.4V25c0,0.4,0,0.8,0.1,1.2c0,0.3,0.1,0.6,0.2,0.8h-6.6c-0.1-0.4-0.2-0.7-0.3-1.1 C416.9,25.5,416.9,25.1,416.9,24.7L416.9,24.7z"></path> <path id="Fill-6" class="st9" d="M441,19.5c0-1.2-0.3-2.3-1-3.2c-0.6-0.8-1.6-1.2-2.6-1.2c-1-0.1-2,0.4-2.7,1.1 c-0.7,1-1,2.1-0.9,3.3c-0.1,1.1,0.3,2.3,0.9,3.2c1.4,1.5,3.6,1.5,5.1,0.2c0.1-0.1,0.1-0.1,0.2-0.2C440.7,21.8,441,20.7,441,19.5 M426.8,5.1h7.1V14c0.8-0.9,1.8-1.5,2.8-2c1.1-0.4,2.3-0.7,3.4-0.7c2.2-0.1,4.3,0.8,5.8,2.3c1.5,1.7,2.3,3.9,2.2,6.1 c0.1,2.1-0.7,4.1-2.2,5.6c-1.6,1.4-3.6,2.2-5.8,2.1c-1.2,0-2.5-0.2-3.6-0.7c-1.1-0.5-2-1.2-2.8-2.1c0,0.5,0,1-0.1,1.4 c0,0.4-0.1,0.7-0.2,1.1h-7.1c0.1-0.4,0.2-0.7,0.2-1.1c0.1-0.5,0.1-1,0.1-1.5L426.8,5.1"></path> <path id="Fill-7" class="st9" d="M464.2,20.3c-1.6-0.1-3.2,0.1-4.7,0.5c-0.7,0.2-1.2,0.8-1.2,1.6c0,0.5,0.2,0.9,0.6,1.2 c0.5,0.3,1.1,0.5,1.7,0.4c1,0.1,1.9-0.2,2.7-0.8c0.7-0.7,1-1.6,0.9-2.5L464.2,20.3L464.2,20.3z M464.4,24.7 c-0.7,0.9-1.6,1.6-2.6,2c-1.3,0.5-2.6,0.7-3.9,0.6c-1.7,0.1-3.5-0.3-5-1.2c-1.1-0.7-1.8-2-1.8-3.3c0-1.9,1.2-3.6,3-4.2 c2-0.9,5.4-1.3,10.2-1.4c0-0.1,0-0.1,0-0.2c0-0.1,0-0.1,0-0.2c0-0.7-0.2-1.3-0.7-1.8c-0.6-0.4-1.4-0.6-2.1-0.6 c-0.7,0-1.4,0.1-2,0.4c-0.5,0.3-0.8,0.7-0.8,1.3H452c0-1.6,0.9-3.1,2.4-3.8c1.6-0.8,4-1.2,7.2-1.2s5.4,0.5,7,1.4 c1.5,1,2.4,2.6,2.3,4.4V25c0,0.4,0,0.8,0.1,1.2c0,0.3,0.1,0.6,0.2,0.8h-6.5c-0.1-0.4-0.2-0.7-0.3-1.1 C464.4,25.5,464.4,25.1,464.4,24.7L464.4,24.7z"></path> <path id="Fill-8" class="st9" d="M492.6,18.8v-2.6h9.3v8.1c-1.3,1.1-2.8,1.9-4.4,2.6c-1.5,0.6-3.1,0.9-4.7,0.9 c-2,0-4-0.4-5.8-1.4c-1.7-0.9-3.1-2.3-4-4c-0.9-1.8-1.4-3.8-1.3-5.8c0-2.1,0.4-4.1,1.3-6c0.8-1.7,2.2-3.2,3.9-4.1 c1.8-0.9,3.8-1.4,5.8-1.3c1.5,0,2.9,0.2,4.3,0.8c1.2,0.4,2.2,1.2,3,2.2c0.8,1.1,1.4,2.3,1.7,3.6l-2.6,0.7 c-0.2-0.9-0.7-1.8-1.2-2.6c-0.5-0.7-1.3-1.2-2.1-1.5c-1-0.4-2-0.6-3-0.6c-1.2,0-2.3,0.2-3.4,0.6c-0.9,0.3-1.7,0.9-2.4,1.6 c-0.6,0.6-1.1,1.4-1.4,2.2c-0.6,1.4-0.9,2.9-0.8,4.4c-0.1,1.7,0.3,3.4,1,4.9c0.6,1.3,1.7,2.3,2.9,2.9c1.3,0.7,2.7,1,4.1,1 c1.3,0,2.5-0.2,3.7-0.7c1-0.4,1.9-0.9,2.7-1.5v-4.1H492.6"></path> <path id="Fill-9" class="st9" d="M506.2,27.4V11.6h2.4V14c0.4-0.9,1-1.6,1.7-2.2c0.5-0.4,1.1-0.5,1.7-0.5c1,0,1.9,0.3,2.8,0.9 l-0.9,2.5c-0.6-0.4-1.3-0.6-2-0.6c-0.6,0-1.1,0.2-1.6,0.5c-0.5,0.4-0.8,0.9-1,1.5c-0.3,1-0.5,2.1-0.5,3.1v8.3L506.2,27.4"></path> <path id="Fill-10" class="st9" d="M518.1,19.5c-0.1,1.6,0.4,3.3,1.3,4.6c0.8,1,2.1,1.5,3.3,1.5c1.3,0,2.5-0.5,3.3-1.5 c1-1.3,1.5-3,1.3-4.6c0.1-1.6-0.4-3.2-1.3-4.4c-1.6-1.8-4.4-2-6.2-0.4c-0.2,0.1-0.3,0.3-0.4,0.4C518.5,16.3,518,17.9,518.1,19.5 M515.3,19.6c0-2.9,0.8-5.1,2.5-6.5c1.4-1.2,3.2-1.8,5-1.8c2-0.1,4,0.7,5.4,2.1c1.5,1.6,2.2,3.7,2.1,5.9c0.1,1.7-0.2,3.3-0.9,4.8 c-0.6,1.2-1.5,2.1-2.7,2.7c-1.2,0.7-2.5,1-3.8,1c-2,0.1-4-0.7-5.4-2.1C515.9,24,515.2,21.8,515.3,19.6"></path> <path id="Fill-11" class="st9" d="M544.2,27.1v-2.4c-1.1,1.7-3,2.7-5,2.7c-0.9,0-1.8-0.2-2.6-0.5c-0.7-0.3-1.3-0.7-1.8-1.4 c-0.4-0.6-0.7-1.3-0.8-2c-0.1-0.8-0.2-1.7-0.2-2.5v-9.8h2.7V20c0,0.9,0,1.9,0.2,2.8c0.1,0.7,0.5,1.3,1.1,1.7 c0.6,0.4,1.3,0.6,2,0.6c0.8,0,1.6-0.2,2.3-0.6c0.7-0.4,1.2-1,1.5-1.7c0.3-1,0.5-2,0.4-3.1v-8.5h2.7v15.9H544.2"></path> <path id="Fill-12" class="st9" d="M554.5,19.6c-0.1,1.6,0.3,3.2,1.2,4.5c0.7,0.9,1.8,1.5,3,1.5c1.2,0,2.4-0.6,3.1-1.5 c1-1.4,1.4-3,1.3-4.7c0.1-1.6-0.3-3.2-1.3-4.5c-0.7-0.9-1.8-1.5-3-1.5c-1.2,0-2.3,0.6-3,1.6C554.9,16.3,554.4,17.9,554.5,19.6 M552.1,33.5V11.6h2.5v2.1c0.5-0.8,1.2-1.4,2-1.8c0.8-0.4,1.7-0.6,2.6-0.6c1.3,0,2.5,0.3,3.6,1c1.1,0.7,1.9,1.8,2.3,3 c0.5,1.3,0.8,2.7,0.8,4.2c0,1.5-0.3,3-0.9,4.4c-0.5,1.2-1.4,2.3-2.5,3c-1,0.7-2.3,1-3.5,1c-0.8,0-1.7-0.2-2.4-0.6 c-0.7-0.3-1.3-0.8-1.8-1.4v7.7H552.1"></path> <path id="Fill-13" d="M254.9,46.5c-0.5-0.1-1-0.4-1.5-0.8c-4.2-4.1,1.2-8.8,7.3-11.5v-7.8c0.7,0.4,1.5,0.8,2.3,1.1l4.8-4.7 l-1.6-4c13.8-4.8,19.4-6.6,30.6-8.5l-2.1-1.9l3.3-1.9c7.6,2.5,14.7,3.2,13.5,9.5c0.3-4.3-5-6-13.2-8.2l-1.6,1l3,2.5 c-10.8,1.8-21.3,4.6-31.6,8.4l1.4,3.5l-4.9,4.9c6.3,1.8,13.1,0.7,18.4-3.1c0,0,0.2-0.1,0.2-0.2c-0.5-0.6-1-1.1-1.6-1.6 c2.4,0.2,4.2,2.2,4,4.6c0,0.1,0,0.2,0,0.3h-1.2c0.1-0.7,0-1.5-0.4-2.2c-6.3,4.7-14.5,6-21.9,3.4v6c-3.3,1.2-9.3,4.8-9.2,8.4 C253,44.9,253.8,46,254.9,46.5"></path> <path id="Fill-14" class="st9" d="M283.3,44.4c-7.5,3.8-14.6,6.8-25.6,7.2c-14.3-0.3-16.5-9.8-9.8-19.7 c6.4-10,16.5-19.1,32.7-24.7c5.8-2.2,12-3.4,18.2-3.6c9.5-0.1,18.8,2.9,18.2,12c-0.4,7-10.5,16.9-15.8,24 c-2.3,3.1-2.7,5.1,1.2,4.9c14.1-0.9,27-5.8,38.9-10.9c-8,5.5-49.7,26.1-49.9,12c0.2-2,1-4,2.2-5.6c1.5-2.2,3.2-4.3,5-6.3 c2.8-3.2,9.9-11,12.2-15.6c4-8.8-4.9-9.2-12.6-11.9L295.1,8l2,1.9c-11.2,1.9-16.8,3.7-30.6,8.5l1.6,4l-4.7,4.7 c-0.8-0.3-1.6-0.7-2.3-1.1v7.8c-6.2,2.7-11.5,7.4-7.3,11.5c0.4,0.4,0.9,0.6,1.5,0.8C262.7,50.2,283.3,44.4,283.3,44.4"></path> <path id="Fill-15" class="st9" d="M327,49.9v-3.5h1.5c0.2,0,0.5,0,0.7,0.1c0.2,0.1,0.3,0.2,0.4,0.3c0.1,0.2,0.2,0.3,0.1,0.5 c0,0.2-0.1,0.5-0.2,0.6c-0.2,0.2-0.5,0.3-0.7,0.3c0.1,0,0.2,0.1,0.3,0.2c0.1,0.1,0.3,0.3,0.4,0.5l0.6,0.9h-0.6l-0.5-0.7 c-0.1-0.2-0.2-0.4-0.3-0.5c-0.1-0.1-0.1-0.2-0.2-0.2c-0.1,0-0.1-0.1-0.2-0.1H328h-0.5v1.5H327z M327.5,48h1c0.2,0,0.3,0,0.5-0.1 c0.1,0,0.2-0.1,0.3-0.2c0.1-0.1,0.1-0.2,0.1-0.3c0-0.2-0.1-0.3-0.2-0.4c-0.2-0.1-0.4-0.2-0.6-0.2h-1.1L327.5,48L327.5,48z"></path> <path id="Fill-16" class="st9" d="M326,49.7c0-1.5,1.2-2.8,2.8-2.8s2.8,1.2,2.8,2.8c0,1.5-1.2,2.8-2.8,2.8c0,0,0,0,0,0 C327.2,52.5,326,51.3,326,49.7 M328.8,53c1.8,0,3.3-1.5,3.3-3.3c0-1.8-1.5-3.3-3.3-3.3c-1.8,0-3.3,1.5-3.3,3.3c0,0,0,0,0,0 C325.5,51.5,326.9,53,328.8,53"></path> <path id="Fill-17" class="st9" d="M364.6,34.2v2.3h7.9v16.4c0.9,0,2.8-0.9,2.8-2.6V36.5c0.6,0,1-1.7,1-2.3L364.6,34.2z M367.8,40.1h1.4v7.1h-1.4V40.1z M371.8,46.3v-8.4h-6.6v11.4h3.3c0.6-0.1,1.2-0.3,1.7-0.6c0.3-0.2,0.6-0.4,0.8-0.7 C371.5,47.6,371.8,47,371.8,46.3L371.8,46.3z M361.5,40.4c-0.1,0.4-0.3,0.8-0.6,1.1l-0.2,0.2c0,0-0.1,0.1-0.1,0h0.9v5.4h-1.1 V36.5h1.1L361.5,40.4L361.5,40.4z M357.6,34.2v18.7c1.4,0,2.6-1.1,2.8-2.5v-1h1.6c1.1-0.3,2-1.1,2.2-2.2V43 c0-0.8-0.9-1.3-1.3-1.7c0.4-0.4,1.3-1,1.3-1.8v-5.4L357.6,34.2z"></path> <path id="Fill-18" class="st9" d="M381,36.3h4v2.4h-4V36.3z M381,40.8h4v2.4h-4V40.8z M388.3,40.8h1.4c0.2,0,0.5-0.1,0.6-0.2 c0.3-0.2,1.5-1.7,1.7-1.9h-3.8v-2.4h4.1v7h-4.1L388.3,40.8L388.3,40.8z M388.3,50.7V49h5.6c0.8,0,1.5-1.4,2-2.1h-7.5v-1.5h4.2 c1.2,0,3.1-1.6,3.2-2.5v-8.7h-17.9v11.2h7.2v1.5h-7.2V49h7.2v1.7h-7.4v2.2h16.7c0.7,0,1.3-1.4,1.9-2.2L388.3,50.7z"></path> <path id="Fill-19" class="st9" d="M400.8,36.6h4v6.2h-4V36.6z M408.1,36.6h3.8v6.2h-3.8L408.1,36.6z M400.8,50.5v-5.3h11.4 c1,0,2.9-1.7,2.9-2.6v-8.4h-17.8v16.1c-0.1,1.3,0.8,2.5,2.1,2.6c0,0,0,0,0.1,0h13.5c1,0,2.2-1.6,2.5-2.4H400.8z"></path> <path id="Fill-20" class="st9" d="M422.3,36.6h3.9v6.2h-3.9V36.6z M429.5,36.6h3.8v6.2h-3.8V36.6z M422.2,50.5v-5.3h11.4 c1.3-0.3,2.4-1.3,2.9-2.6v-8.4h-17.8v16.1c-0.1,1.3,0.8,2.5,2.2,2.6c0,0,0,0,0.1,0h13.5c1,0,2.2-1.6,2.5-2.4H422.2z"></path> <path id="Fill-21" class="st9" d="M448.4,47v-0.6h1.3v0.5h8c0,0-0.2,1.1-2,1.1h-6v2.9c0,2.2-1.4,2.5-1.4,2.5v-5.3h-9.6V47H448.4"></path> <path id="Fill-22" class="st9" d="M441.8,49.5h1.4c0,0-1.5,1.9-1.9,2.4s-1,1.3-1.9,1.3h-0.6L441.8,49.5"></path> <path id="Fill-23" class="st9" d="M455.5,49.5h-1.4c0,0,1.5,1.9,1.9,2.4s1,1.3,1.9,1.3h0.6L455.5,49.5"></path> <path id="Fill-24" class="st9" d="M448.3,37.8h-6.8v-0.6l0.4-0.5l0.5-0.6h6L448.3,37.8L448.3,37.8z M441.5,39h6.8v1.7h-6.8V39z M441.5,41.8h6.8v1.7h-6.8V41.8z M455.7,36c1.7,0,2-1.1,2-1.1h-8l0.6-0.8H449l-0.7,0.8h-5.4l0.7-0.8h-1.4l-3.4,4.4h1.5v6.1 c0.1,0,0.2,0,0.4,0c2.1,0,2.3-0.3,2.3-0.3h12.8c1.7,0,1.9-1,1.9-1h-8v-1.8h6.1c1.7,0,2-1.1,2-1.1h-8v-1.8h6.1c1.7,0,2-1.1,2-1.1 h-8V36H455.7z"></path> <path id="Fill-25" class="st9" d="M477.9,50.6c0,0.7-0.2,1.2-1,1.2h-14V35.3h15V50.6z M461.8,34.2v18.9h15.9 c1.2,0,1.7-1.1,1.6-2.3V34.2H461.8z"></path> <path id="Fill-26" class="st9" d="M468.8,41.8l-4,7.2c0.8,0.2,1.6-0.3,2-1l3.4-6.2L468.8,41.8"></path> <path id="Fill-27" class="st9" d="M473.8,47.7c0,0.4-0.1,0.6-0.4,0.6h-1.3v1.1h1.7c1,0,1.4-0.4,1.3-1.5v-7.1 c0.7,0.1,1.3-0.4,1.4-1.1h-1.4v-2.4h-1.3v2.4h-9v1.2h9V47.7"></path> </g> </g> </g> </svg> 