<?xml version="1.0" encoding="UTF-8"?> <!-- Generator: Adobe Illustrator 25.2.3, SVG Export Plug-In . SVG Version: 6.00 Build 0) --> <svg xmlns="http://www.w3.org/2000/svg" xmlns:xlink="http://www.w3.org/1999/xlink" version="1.1" id="Layer_1" x="0px" y="0px" viewBox="0 0 307.7 140.3" style="enable-background:new 0 0 307.7 140.3;" xml:space="preserve"> <style type="text/css"> .st0{fill:#007F00;} .st1{fill:none;stroke:#FFFFFF;stroke-width:7;stroke-miterlimit:10;} .st2{fill:#FFFFFF;} .st3{fill:none;stroke:#FFFFFF;stroke-width:2;stroke-miterlimit:10;} </style> <ellipse class="st0" cx="153.5" cy="71.1" rx="148.5" ry="65.4"></ellipse> <ellipse class="st1" cx="153.6" cy="71.1" rx="138.8" ry="56.7"></ellipse> <path class="st2" d="M45.1,53.9l4.3,10.2l4.3-10.3c0.2-0.5,0.4-0.9,0.5-1.1c0.1-0.2,0.3-0.4,0.5-0.6c0.3-0.2,0.7-0.3,1.1-0.3 c0.3,0,0.6,0.1,0.9,0.2c0.3,0.1,0.5,0.3,0.7,0.5c0.1,0.2,0.2,0.4,0.2,0.7c0,0.2,0,0.3-0.1,0.5c0,0.2-0.1,0.4-0.2,0.5 c-0.1,0.2-0.2,0.3-0.2,0.5l-4.6,10c-0.2,0.4-0.3,0.7-0.5,1.1c-0.1,0.3-0.3,0.6-0.6,0.9c-0.2,0.3-0.5,0.5-0.9,0.6 c-0.4,0.2-0.9,0.3-1.3,0.2c-0.5,0-0.9-0.1-1.3-0.3c-0.3-0.1-0.6-0.4-0.9-0.7c-0.2-0.3-0.4-0.6-0.6-0.9c-0.2-0.3-0.3-0.7-0.5-1.1 l-4.5-9.9l-0.2-0.5c-0.1-0.2-0.2-0.4-0.2-0.6c0-0.2-0.1-0.3-0.1-0.5c0-0.4,0.2-0.8,0.5-1c0.4-0.3,0.9-0.5,1.3-0.4 c0.5-0.1,1,0.1,1.4,0.5C44.6,52.8,44.9,53.3,45.1,53.9z"></path> <path class="st2" d="M65.6,53.7l7.4,9v-9.1c0-0.5,0.1-1,0.5-1.3c0.4-0.3,0.8-0.5,1.3-0.4c0.5,0,0.9,0.1,1.3,0.4 c0.3,0.4,0.5,0.8,0.5,1.3v12c0.1,1-0.6,1.9-1.6,2c-0.2,0-0.3,0-0.5,0c-0.3,0-0.6,0-0.9-0.1c-0.3-0.1-0.5-0.2-0.8-0.4 c-0.2-0.2-0.5-0.4-0.7-0.6l-0.6-0.7l-7.2-8.9v9c0,0.5-0.1,1-0.5,1.3c-0.8,0.6-1.8,0.6-2.6,0c-0.3-0.4-0.5-0.8-0.5-1.3V54.1 c0-0.4,0.1-0.8,0.2-1.2c0.2-0.3,0.5-0.6,0.8-0.8c0.4-0.2,0.8-0.3,1.2-0.3c0.3,0,0.6,0,0.9,0.1c0.2,0.1,0.5,0.2,0.6,0.4 c0.2,0.2,0.4,0.4,0.6,0.6L65.6,53.7z"></path> <path class="st2" d="M94.7,61.4h-3.5v4.3c0,0.5-0.2,1-0.6,1.4c-0.4,0.3-0.9,0.5-1.4,0.5c-0.5,0-1-0.1-1.4-0.5 c-0.4-0.4-0.6-0.9-0.5-1.4V54c-0.1-0.6,0.2-1.1,0.6-1.5c0.6-0.3,1.2-0.5,1.8-0.4h4.9c1.1,0,2.3,0.1,3.4,0.3c0.7,0.2,1.4,0.5,2,0.9 c0.5,0.4,1,0.9,1.3,1.5c0.3,0.6,0.5,1.3,0.4,2c0.1,1.4-0.6,2.8-1.8,3.5C98.4,61.1,96.6,61.6,94.7,61.4z M93.8,54.4h-2.6v4.7h2.6 c0.8,0,1.5-0.1,2.3-0.2c0.5-0.1,1-0.4,1.4-0.8c0.3-0.4,0.5-0.9,0.5-1.4c0-0.6-0.3-1.2-0.7-1.7C96.2,54.5,95,54.3,93.8,54.4z"></path> <path class="st2" d="M108.8,53.7v11.1h7.8c0.5,0,1,0.1,1.4,0.4c0.3,0.2,0.5,0.5,0.5,0.9c0,0.4-0.2,0.7-0.5,0.9 c-0.4,0.3-0.9,0.4-1.4,0.3h-9.3c-0.6,0.1-1.3-0.1-1.8-0.4c-0.4-0.4-0.6-0.9-0.6-1.4V53.7c0-0.5,0.2-1,0.5-1.4 c0.4-0.3,0.9-0.5,1.4-0.5c0.5,0,1,0.1,1.4,0.5C108.7,52.7,108.9,53.2,108.8,53.7z"></path> <path class="st2" d="M132.9,65.6l-0.9-1.9h-7.7l-0.9,2c-0.2,0.6-0.5,1.1-0.9,1.6c-0.3,0.3-0.8,0.4-1.2,0.4c-0.5,0-0.9-0.1-1.3-0.4 c-0.3-0.2-0.6-0.6-0.6-1c0-0.2,0-0.4,0.1-0.7c0.1-0.3,0.3-0.6,0.4-0.9l4.9-9.9c0.1-0.3,0.3-0.6,0.5-1c0.2-0.4,0.4-0.7,0.6-1 c0.2-0.3,0.5-0.5,0.9-0.6c0.4-0.2,0.9-0.3,1.3-0.2c0.5,0,0.9,0.1,1.3,0.2c0.3,0.1,0.6,0.4,0.9,0.6c0.2,0.3,0.4,0.5,0.6,0.8 c0.1,0.3,0.3,0.7,0.6,1.2l5,9.8c0.3,0.5,0.5,1.1,0.6,1.6c0,0.4-0.2,0.8-0.6,1c-0.4,0.3-0.8,0.5-1.3,0.4c-0.3,0-0.5,0-0.8-0.1 c-0.2-0.1-0.4-0.2-0.6-0.3c-0.2-0.2-0.3-0.4-0.5-0.7L132.9,65.6z M125.3,61.4h5.7l-2.9-6.3L125.3,61.4z"></path> <path class="st2" d="M154.3,62.8c0,0.9-0.3,1.8-0.9,2.5c-0.7,0.8-1.6,1.4-2.6,1.7c-1.3,0.4-2.7,0.6-4.1,0.6 c-1.6,0.1-3.2-0.2-4.6-0.8c-0.8-0.4-1.5-0.9-2.1-1.6c-0.5-0.6-0.8-1.3-0.8-2c0-0.4,0.2-0.8,0.5-1c0.4-0.3,0.8-0.4,1.2-0.4 c0.4,0,0.7,0.1,1,0.3c0.3,0.2,0.6,0.6,0.7,0.9c0.2,0.4,0.5,0.8,0.8,1.2c0.3,0.4,0.7,0.6,1.2,0.8c0.6,0.2,1.3,0.3,2,0.3 c1,0,1.9-0.2,2.8-0.6c0.6-0.3,1-0.9,1.1-1.6c0-0.5-0.2-0.9-0.6-1.2c-0.4-0.3-0.9-0.6-1.5-0.7c-0.6-0.2-1.4-0.3-2.4-0.5 c-1.2-0.2-2.3-0.5-3.4-0.9c-0.8-0.3-1.6-0.8-2.2-1.4c-0.5-0.6-0.8-1.4-0.8-2.2c0-0.8,0.3-1.6,0.9-2.2c0.7-0.7,1.5-1.2,2.5-1.5 c1.2-0.4,2.5-0.6,3.8-0.5c1,0,2,0.1,3,0.3c0.8,0.2,1.5,0.5,2.1,0.9c0.5,0.3,0.9,0.7,1.3,1.2c0.2,0.4,0.4,0.8,0.4,1.2 c0,0.4-0.2,0.8-0.5,1c-0.3,0.3-0.8,0.5-1.2,0.4c-0.4,0-0.7-0.1-1-0.3c-0.3-0.2-0.5-0.5-0.7-0.9c-0.7-1.3-2.1-2.1-3.5-1.9 c-0.8,0-1.7,0.1-2.4,0.5c-0.5,0.2-0.9,0.7-0.9,1.3c0,0.3,0.1,0.6,0.3,0.8c0.2,0.2,0.5,0.4,0.9,0.6c0.4,0.2,0.7,0.3,1.1,0.4l1.8,0.4 c1.1,0.2,2,0.4,2.9,0.7c0.8,0.2,1.5,0.5,2.2,0.9c0.6,0.3,1.1,0.8,1.4,1.3C154.1,61.4,154.3,62.1,154.3,62.8z"></path> <path class="st2" d="M169.9,54.7h-4.2v11.1c0,0.5-0.2,1.1-0.5,1.4c-0.8,0.6-1.9,0.6-2.8,0c-0.4-0.4-0.6-0.9-0.5-1.4V54.7h-4.2 c-0.5,0-1-0.1-1.5-0.3c-0.3-0.2-0.5-0.6-0.5-0.9c0-0.4,0.2-0.7,0.5-0.9c0.4-0.3,0.9-0.4,1.4-0.3h12.2c0.5,0,1,0.1,1.5,0.4 c0.3,0.2,0.5,0.6,0.5,0.9c0,0.4-0.2,0.7-0.5,0.9C170.9,54.6,170.4,54.7,169.9,54.7z"></path> <path class="st2" d="M174.3,65.8v-12c0-0.5,0.2-1,0.5-1.4c0.4-0.3,0.9-0.5,1.4-0.5c0.5,0,1,0.1,1.4,0.5c0.4,0.4,0.6,0.9,0.5,1.4v12 c0,0.5-0.2,1-0.5,1.4c-0.8,0.6-2,0.6-2.8,0C174.4,66.8,174.2,66.3,174.3,65.8z"></path> <path class="st2" d="M198.6,62.5c0,0.6-0.2,1.1-0.4,1.6c-0.4,0.6-0.8,1.2-1.4,1.7c-0.7,0.6-1.6,1-2.4,1.3c-1.1,0.4-2.3,0.5-3.5,0.5 c-0.9,0-1.8-0.1-2.7-0.2c-0.8-0.1-1.5-0.4-2.2-0.7c-0.7-0.3-1.3-0.8-1.9-1.3c-0.5-0.5-0.9-1-1.3-1.6c-0.4-0.6-0.6-1.2-0.8-1.9 c-0.2-0.7-0.3-1.4-0.3-2.1c0-1.1,0.2-2.3,0.7-3.3c0.4-1,1.1-1.8,1.9-2.5c0.9-0.7,1.8-1.2,2.9-1.6c1.2-0.4,2.4-0.5,3.6-0.5 c1.4,0,2.8,0.2,4.1,0.7c1.1,0.4,2,1,2.8,1.8c0.6,0.5,0.9,1.3,1,2.1c0,0.4-0.2,0.7-0.5,0.9c-0.3,0.3-0.7,0.4-1.1,0.4 c-0.4,0-0.8-0.1-1.1-0.3c-0.3-0.3-0.6-0.6-0.8-1c-0.4-0.7-1.1-1.3-1.8-1.7c-0.8-0.4-1.6-0.6-2.5-0.6c-1.4-0.1-2.8,0.5-3.8,1.5 c-1,1.1-1.5,2.6-1.4,4.1c0,1,0.2,2.1,0.6,3c0.4,0.7,1,1.4,1.8,1.7c0.8,0.4,1.7,0.6,2.7,0.6c1,0,1.9-0.2,2.8-0.7 c0.8-0.4,1.4-1.1,1.7-1.9c0.1-0.4,0.3-0.7,0.6-1c0.3-0.3,0.7-0.4,1.2-0.4c0.4,0,0.8,0.1,1.2,0.4C198.5,61.8,198.6,62.2,198.6,62.5z"></path> <line class="st3" x1="41" y1="76.1" x2="264.3" y2="76.1"></line> <path class="st2" d="M144.9,88.4l1.6,5.4l1.4-5c0.1-0.5,0.3-0.9,0.3-1.1c0.1-0.2,0.2-0.4,0.4-0.6c0.2-0.2,0.5-0.3,0.8-0.3 c0.3,0,0.6,0.1,0.9,0.3c0.2,0.2,0.3,0.3,0.4,0.6c0.1,0.2,0.2,0.6,0.3,1.1l1.4,5l1.6-5.4c0.1-0.3,0.2-0.6,0.3-0.8 c0.1-0.2,0.2-0.3,0.3-0.5c0.2-0.1,0.4-0.2,0.7-0.2c0.3,0,0.6,0.1,0.8,0.3c0.2,0.2,0.3,0.4,0.3,0.7c0,0.4-0.1,0.8-0.3,1.1l-2,5.8 c-0.2,0.5-0.3,0.8-0.4,1.1c-0.1,0.2-0.3,0.4-0.4,0.6c-0.2,0.2-0.5,0.3-0.8,0.3c-0.3,0-0.6-0.1-0.9-0.3c-0.2-0.2-0.4-0.4-0.5-0.7 c-0.1-0.3-0.2-0.6-0.3-1l-1.4-4.8l-1.3,4.7c-0.1,0.5-0.3,1-0.6,1.5c-0.2,0.4-0.7,0.5-1.1,0.5c-0.2,0-0.5,0-0.7-0.2 c-0.2-0.1-0.4-0.3-0.5-0.4c-0.1-0.2-0.2-0.4-0.3-0.7c-0.1-0.3-0.2-0.5-0.2-0.6l-2-5.8c-0.2-0.4-0.3-0.7-0.3-1.1 c0-0.3,0.1-0.5,0.3-0.7c0.2-0.2,0.5-0.3,0.8-0.3c0.3,0,0.6,0.1,0.8,0.3C144.6,87.6,144.8,88,144.9,88.4z"></path> <path class="st2" d="M164.7,92.4H160c0,0.5,0.1,1,0.3,1.5c0.2,0.4,0.5,0.8,0.9,1c0.4,0.2,0.8,0.3,1.2,0.3c0.3,0,0.5,0,0.8-0.1 c0.3-0.1,0.5-0.2,0.7-0.3c0.2-0.1,0.4-0.3,0.6-0.5c0.2-0.2,0.4-0.4,0.7-0.7c0.2-0.1,0.3-0.2,0.5-0.2c0.2,0,0.4,0.1,0.6,0.2 c0.2,0.1,0.2,0.4,0.2,0.6c0,0.3-0.1,0.5-0.3,0.8c-0.2,0.3-0.5,0.6-0.8,0.8c-0.4,0.3-0.8,0.5-1.3,0.7c-0.6,0.2-1.2,0.3-1.8,0.3 c-1.3,0.1-2.7-0.4-3.6-1.3c-0.9-1-1.4-2.3-1.3-3.6c0-0.7,0.1-1.4,0.3-2c0.2-0.6,0.5-1.1,0.9-1.6c0.4-0.4,0.9-0.8,1.5-1 c0.6-0.2,1.3-0.4,2-0.3c0.9,0,1.7,0.2,2.4,0.6c0.6,0.4,1.1,0.9,1.5,1.5c0.3,0.6,0.5,1.3,0.5,1.9c0,0.6-0.2,1-0.5,1.2 C165.7,92.3,165.2,92.4,164.7,92.4z M160,91h4.4c0-0.7-0.2-1.3-0.7-1.9c-0.4-0.4-1-0.6-1.5-0.6c-0.6,0-1.1,0.2-1.5,0.6 C160.3,89.7,160,90.3,160,91z"></path> <path class="st2" d="M173.4,87.1h0.3v-1.5c0-0.4,0-0.7,0-0.9c0-0.2,0.1-0.4,0.2-0.6c0.2-0.3,0.6-0.6,1-0.6c0.3,0,0.6,0.1,0.8,0.3 c0.2,0.1,0.3,0.3,0.3,0.6c0.1,0.3,0.1,0.7,0.1,1v1.7h0.9c0.3,0,0.6,0.1,0.8,0.2c0.2,0.2,0.3,0.4,0.3,0.6c0,0.3-0.1,0.6-0.4,0.7 c-0.4,0.1-0.7,0.2-1.1,0.2h-0.4v4.5c0,0.3,0,0.6,0,0.9c0,0.2,0.1,0.4,0.2,0.5c0.2,0.1,0.4,0.2,0.6,0.2c0.2,0,0.4,0,0.6-0.1 c0.2,0,0.4-0.1,0.6-0.1c0.2,0,0.4,0.1,0.5,0.2c0.2,0.2,0.2,0.4,0.2,0.6c0,0.4-0.3,0.8-0.6,0.9c-0.6,0.2-1.2,0.3-1.8,0.3 c-0.6,0-1.2-0.1-1.7-0.4c-0.4-0.2-0.7-0.6-0.8-1.1c-0.1-0.6-0.2-1.2-0.2-1.8v-4.7h-0.3c-0.3,0-0.6-0.1-0.8-0.2 c-0.2-0.2-0.3-0.4-0.3-0.6c0-0.2,0.1-0.5,0.3-0.6C172.8,87.1,173.1,87,173.4,87.1z"></path> <path class="st2" d="M182.1,93.2v2c0,0.4-0.1,0.8-0.3,1.1c-0.2,0.2-0.5,0.4-0.9,0.4c-0.3,0-0.6-0.1-0.9-0.4 c-0.2-0.3-0.4-0.7-0.3-1.1v-6.7c0-1.1,0.4-1.6,1.2-1.6c0.3,0,0.7,0.1,0.9,0.4c0.2,0.3,0.3,0.7,0.3,1.1c0.2-0.4,0.5-0.8,0.9-1.1 c0.3-0.3,0.8-0.4,1.2-0.4c0.5,0,1,0.1,1.5,0.4c0.4,0.2,0.7,0.6,0.7,1c0,0.3-0.1,0.5-0.3,0.7c-0.2,0.2-0.4,0.3-0.7,0.3 c-0.2,0-0.4-0.1-0.6-0.2c-0.3-0.1-0.6-0.2-0.9-0.2c-0.3,0-0.6,0.1-0.9,0.3c-0.2,0.2-0.4,0.5-0.5,0.8c-0.1,0.4-0.2,0.9-0.3,1.3 C182.2,91.9,182.1,92.5,182.1,93.2z"></path> <path class="st2" d="M190,97l0.2-0.5l-3-7.5c-0.1-0.3-0.2-0.6-0.3-0.9c0-0.2,0.1-0.4,0.2-0.6c0.1-0.2,0.3-0.3,0.4-0.4 c0.2-0.1,0.4-0.2,0.6-0.2c0.3,0,0.6,0.1,0.8,0.3c0.2,0.3,0.4,0.6,0.5,1l2.1,6l1.9-5.6c0.1-0.4,0.3-0.7,0.4-1.1 c0.1-0.2,0.2-0.4,0.4-0.5c0.2-0.1,0.4-0.1,0.6-0.1c0.2,0,0.4,0.1,0.5,0.1c0.2,0.1,0.3,0.2,0.4,0.4c0.1,0.2,0.1,0.3,0.1,0.5 c0,0.1-0.1,0.3-0.1,0.5s-0.1,0.4-0.2,0.6l-3.2,8.3c-0.2,0.6-0.5,1.2-0.8,1.7c-0.2,0.4-0.6,0.8-1,1c-0.5,0.2-1.1,0.4-1.7,0.3 c-0.5,0-1.1-0.1-1.6-0.2c-0.3-0.1-0.6-0.5-0.5-0.8c0-0.2,0.1-0.5,0.3-0.6c0.2-0.2,0.5-0.2,0.8-0.2c0.1,0,0.3,0,0.4,0.1 c0.1,0,0.3,0,0.4,0c0.2,0,0.5,0,0.7-0.1c0.2-0.1,0.3-0.3,0.4-0.4C189.7,97.7,189.9,97.3,190,97z"></path> <path class="st2" d="M204.5,84.7v3.6c0.3-0.3,0.6-0.6,0.9-0.8c0.3-0.2,0.6-0.4,1-0.5c0.4-0.1,0.8-0.2,1.1-0.2c0.6,0,1.1,0.1,1.6,0.4 c0.5,0.3,0.9,0.7,1.1,1.1c0.2,0.3,0.3,0.6,0.4,1c0.1,0.4,0.1,0.8,0.1,1.2v4.7c0,0.4-0.1,0.8-0.3,1.1c-0.2,0.2-0.5,0.4-0.9,0.4 c-0.8,0-1.2-0.5-1.2-1.5v-4.1c0-0.6-0.1-1.2-0.3-1.8c-0.3-0.4-0.8-0.7-1.3-0.6c-0.4,0-0.8,0.1-1.2,0.4c-0.3,0.3-0.6,0.6-0.8,1 c-0.2,0.6-0.2,1.3-0.2,1.9v3.2c0,0.4-0.1,0.8-0.3,1.1c-0.2,0.3-0.6,0.4-0.9,0.4c-0.8,0-1.2-0.5-1.2-1.5V84.7c0-0.4,0.1-0.8,0.3-1.1 c0.2-0.3,0.6-0.4,0.9-0.4c0.3,0,0.7,0.1,0.9,0.4C204.4,83.9,204.5,84.3,204.5,84.7z"></path> <path class="st2" d="M219.2,95.3c-0.5,0.4-1.1,0.7-1.7,1c-0.6,0.2-1.2,0.4-1.8,0.3c-0.6,0-1.1-0.1-1.6-0.4c-0.9-0.4-1.5-1.3-1.5-2.3 c0-0.6,0.2-1.2,0.6-1.7c0.5-0.5,1.1-0.8,1.7-0.9l1.1-0.2c0.6-0.1,1.1-0.2,1.6-0.3s0.9-0.2,1.4-0.4c0-0.5-0.1-1-0.4-1.4 c-0.4-0.4-0.9-0.5-1.4-0.4c-0.5,0-1,0.1-1.4,0.2c-0.3,0.2-0.6,0.5-0.8,0.8c-0.1,0.2-0.3,0.5-0.5,0.7c-0.2,0.1-0.4,0.2-0.6,0.2 c-0.3,0-0.5-0.1-0.7-0.3c-0.2-0.2-0.3-0.4-0.3-0.7c0-0.5,0.2-0.9,0.4-1.2c0.4-0.5,0.9-0.8,1.4-1c0.8-0.3,1.6-0.4,2.4-0.4 c0.9,0,1.7,0.1,2.5,0.4c0.6,0.2,1,0.6,1.3,1.2c0.3,0.7,0.4,1.4,0.4,2.2V92c0,0.4,0,0.8,0,1.3c0,0.5,0.1,1,0.2,1.4 c0.1,0.3,0.2,0.7,0.2,1c0,0.3-0.1,0.5-0.4,0.7c-0.2,0.2-0.5,0.3-0.8,0.3c-0.3,0-0.6-0.1-0.7-0.3C219.7,96.1,219.4,95.7,219.2,95.3z M219.1,91.8c-0.5,0.2-1,0.3-1.6,0.4c-0.7,0.2-1.1,0.2-1.4,0.3c-0.3,0.1-0.5,0.2-0.7,0.4c-0.2,0.2-0.4,0.5-0.4,0.8 c0,0.4,0.1,0.7,0.4,0.9c0.3,0.3,0.7,0.4,1.1,0.4c0.5,0,0.9-0.1,1.3-0.3c0.4-0.2,0.7-0.5,0.9-0.8c0.3-0.6,0.4-1.2,0.3-1.8L219.1,91.8 z"></path> <path class="st2" d="M226.3,93.2v2c0,0.4-0.1,0.8-0.4,1.1c-0.2,0.2-0.5,0.4-0.9,0.4c-0.3,0-0.6-0.1-0.9-0.4 c-0.2-0.3-0.4-0.7-0.3-1.1v-6.7c0-1.1,0.4-1.6,1.2-1.6c0.3,0,0.7,0.1,0.9,0.4c0.2,0.3,0.3,0.7,0.3,1.1c0.2-0.4,0.5-0.8,0.9-1.1 c0.3-0.3,0.8-0.4,1.2-0.4c0.5,0,1,0.1,1.5,0.4c0.4,0.2,0.7,0.6,0.7,1c0,0.3-0.1,0.5-0.3,0.7c-0.2,0.2-0.4,0.3-0.7,0.3 c-0.2,0-0.4-0.1-0.6-0.2c-0.3-0.1-0.6-0.2-0.9-0.2c-0.3,0-0.6,0.1-0.9,0.3c-0.2,0.2-0.4,0.5-0.5,0.8c-0.1,0.4-0.2,0.9-0.3,1.3 C226.3,91.9,226.3,92.5,226.3,93.2z"></path> <path class="st2" d="M238,95.3v-0.2c-0.3,0.3-0.6,0.6-1,0.9c-0.3,0.2-0.6,0.4-1,0.5c-0.4,0.1-0.8,0.2-1.2,0.2 c-0.6,0-1.1-0.1-1.6-0.4c-0.5-0.2-0.9-0.6-1.3-1c-0.4-0.5-0.7-1-0.8-1.6c-0.2-0.6-0.3-1.3-0.3-2c-0.1-1.3,0.4-2.6,1.2-3.6 c0.7-0.8,1.8-1.3,2.9-1.3c0.6,0,1.2,0.1,1.8,0.4c0.5,0.3,0.9,0.7,1.3,1.1v-3.6c0-0.4,0.1-0.8,0.3-1.1c0.2-0.3,0.5-0.4,0.9-0.4 c0.3,0,0.6,0.1,0.9,0.3c0.2,0.3,0.3,0.6,0.3,1v10.7c0,0.4-0.1,0.7-0.3,1c-0.4,0.5-1.2,0.5-1.6,0c0,0,0,0,0,0 C238.1,96,238,95.7,238,95.3z M233.2,91.8c0,0.6,0.1,1.1,0.3,1.7c0.2,0.4,0.5,0.8,0.8,1c0.3,0.2,0.8,0.3,1.2,0.3 c0.4,0,0.8-0.1,1.2-0.3c0.4-0.2,0.7-0.6,0.8-1c0.4-1.1,0.4-2.3,0-3.4c-0.2-0.4-0.5-0.8-0.9-1.1c-0.3-0.2-0.8-0.4-1.2-0.4 c-0.4,0-0.8,0.1-1.2,0.4c-0.4,0.3-0.6,0.6-0.8,1.1C233.3,90.6,233.2,91.2,233.2,91.8L233.2,91.8z"></path> <path class="st2" d="M249.5,92.4h-4.7c0,0.5,0.1,1,0.3,1.5c0.2,0.4,0.5,0.8,0.9,1c0.4,0.2,0.8,0.3,1.2,0.3c0.3,0,0.6-0.1,0.8-0.2 c0.2-0.1,0.5-0.2,0.7-0.3c0.2-0.1,0.4-0.3,0.6-0.5l0.7-0.7c0.2-0.1,0.3-0.2,0.5-0.2c0.2,0,0.4,0.1,0.6,0.2c0.2,0.1,0.2,0.4,0.2,0.6 c0,0.3-0.1,0.5-0.2,0.8c-0.2,0.3-0.5,0.6-0.8,0.8c-0.4,0.3-0.8,0.5-1.3,0.7c-0.6,0.2-1.2,0.3-1.8,0.3c-1.3,0.1-2.7-0.4-3.6-1.3 c-0.9-1-1.4-2.3-1.3-3.6c0-0.7,0.1-1.4,0.3-2c0.2-0.6,0.5-1.1,0.9-1.6c0.4-0.4,0.9-0.8,1.5-1c0.6-0.2,1.3-0.4,2-0.3 c0.9,0,1.7,0.2,2.4,0.6c0.6,0.4,1.1,0.9,1.4,1.6c0.3,0.6,0.5,1.3,0.5,1.9c0,0.6-0.2,1-0.5,1.2C250.5,92.3,250,92.4,249.5,92.4z M244.8,91h4.4c0-0.7-0.2-1.3-0.7-1.9c-0.4-0.4-1-0.6-1.5-0.6c-0.6,0-1.1,0.2-1.5,0.6C245.1,89.7,244.8,90.3,244.8,91z"></path> <path class="st2" d="M256,93.2v2c0,0.4-0.1,0.8-0.3,1.1c-0.2,0.2-0.5,0.4-0.9,0.4c-0.3,0-0.6-0.1-0.9-0.4c-0.2-0.3-0.4-0.7-0.3-1.1 v-6.7c0-1.1,0.4-1.6,1.2-1.6c0.3,0,0.7,0.1,0.9,0.4c0.2,0.3,0.3,0.7,0.3,1.1c0.2-0.4,0.5-0.8,0.9-1.1c0.3-0.3,0.8-0.4,1.2-0.4 c0.5,0,1,0.1,1.5,0.4c0.4,0.2,0.7,0.6,0.7,1c0,0.3-0.1,0.5-0.3,0.7c-0.2,0.2-0.4,0.3-0.7,0.3c-0.2,0-0.4-0.1-0.6-0.2 c-0.3-0.1-0.6-0.2-0.9-0.2c-0.3,0-0.6,0.1-0.9,0.3c-0.2,0.2-0.4,0.5-0.5,0.8c-0.1,0.4-0.2,0.9-0.3,1.3C256,91.9,256,92.5,256,93.2z"></path> <path class="st2" d="M262.3,90.8l-0.3-4.2c-0.1-0.8-0.1-1.4-0.1-1.8c0-0.4,0.1-0.8,0.4-1.2c0.3-0.3,0.6-0.4,1-0.4 c0.4,0,0.8,0.2,1,0.5c0.2,0.5,0.3,1,0.3,1.5c0,0.4,0,0.8-0.1,1.2l-0.4,4.4c0,0.4-0.1,0.8-0.3,1.2c-0.1,0.3-0.4,0.4-0.7,0.4 c-0.3,0-0.6-0.1-0.7-0.4C262.4,91.7,262.3,91.3,262.3,90.8z M263.3,96.7c-0.3,0-0.7-0.1-1-0.3c-0.3-0.3-0.4-0.6-0.4-1 c0-0.7,0.6-1.3,1.3-1.3c0,0,0,0,0,0c0.4,0,0.7,0.1,1,0.4c0.3,0.2,0.4,0.6,0.4,0.9c0,0.4-0.1,0.7-0.4,1 C264,96.6,263.7,96.7,263.3,96.7L263.3,96.7z"></path> </svg> 